<svg width="1280" height="480" viewBox="0 0 1280 480" fill="none" xmlns="http://www.w3.org/2000/svg">
<rect width="1280" height="480" fill="#07080A"/>
<rect x="261" y="180" width="40" height="40" fill="white"/>
<rect x="301" y="220" width="40" height="40" fill="white"/>
<rect x="261" y="260" width="40" height="40" fill="white"/>
<rect x="341" y="180" width="40" height="40" fill="white"/>
<path d="M433.672 272L448.96 249.068L433.924 226.556H451.144L457.864 237.728L464.584 226.556H481.468L466.516 248.984L481.804 272H464.668L457.612 260.324L450.472 272H433.672ZM506.308 273.092C492.028 273.092 481.948 263.6 481.948 249.488V249.32C481.948 236.048 491.44 225.548 504.88 225.548C520.588 225.548 527.812 237.056 527.812 250.412C527.812 251.42 527.812 252.596 527.728 253.688H497.32C498.58 258.644 502.192 261.164 507.148 261.164C510.928 261.164 513.952 259.736 517.228 256.544L526.048 263.852C521.68 269.396 515.38 273.092 506.308 273.092ZM497.068 245.54H512.86C512.272 240.5 509.332 237.308 504.964 237.308C500.764 237.308 497.908 240.584 497.068 245.54ZM534.655 272V226.556H550.615V235.712C553.219 229.496 557.419 225.464 564.979 225.8V242.6H563.635C555.319 242.6 550.615 247.388 550.615 257.888V272H534.655ZM592.948 273.092C578.416 273.092 567.916 262.424 567.916 249.488V249.32C567.916 236.384 578.5 225.548 593.116 225.548C607.648 225.548 618.148 236.216 618.148 249.152V249.32C618.148 262.256 607.564 273.092 592.948 273.092ZM593.116 259.568C598.912 259.568 602.608 254.948 602.608 249.488V249.32C602.608 243.776 598.576 239.072 592.948 239.072C587.152 239.072 583.456 243.692 583.456 249.152V249.32C583.456 254.864 587.488 259.568 593.116 259.568ZM623.397 272V255.62H640.029V272H623.397ZM669.632 273.092C655.352 273.092 645.272 263.6 645.272 249.488V249.32C645.272 236.048 654.764 225.548 668.204 225.548C683.912 225.548 691.136 237.056 691.136 250.412C691.136 251.42 691.136 252.596 691.052 253.688H660.644C661.904 258.644 665.516 261.164 670.472 261.164C674.252 261.164 677.276 259.736 680.552 256.544L689.372 263.852C685.004 269.396 678.704 273.092 669.632 273.092ZM660.392 245.54H676.184C675.596 240.5 672.656 237.308 668.288 237.308C664.088 237.308 661.232 240.584 660.392 245.54ZM697.979 272V226.556H713.939V232.94C716.879 229.16 721.079 225.548 727.547 225.548C737.207 225.548 743.003 231.932 743.003 242.264V272H727.043V247.388C727.043 242.432 724.439 239.744 720.659 239.744C716.795 239.744 713.939 242.432 713.939 247.388V272H697.979ZM773.562 285.608C764.742 285.608 757.35 283.76 750.798 280.4L755.922 269.816C760.794 272.504 765.666 274.1 771.798 274.1C779.778 274.1 783.726 270.152 783.726 262.928V261.164C780.534 264.86 776.334 267.968 769.698 267.968C758.526 267.968 749.538 259.904 749.538 246.884V246.716C749.538 233.612 758.694 225.548 769.194 225.548C775.998 225.548 780.03 228.32 783.474 231.932V226.556H799.434V261.08C799.434 269.396 797.586 275.192 793.554 279.224C789.438 283.34 783.054 285.608 773.562 285.608ZM774.486 255.704C779.862 255.704 783.726 251.924 783.726 246.884V246.716C783.726 241.676 779.862 237.98 774.486 237.98C769.026 237.98 765.162 241.76 765.162 246.8V246.968C765.162 252.008 769.026 255.704 774.486 255.704ZM807.983 222.44V210.68H824.615V222.44H807.983ZM808.319 272V226.556H824.279V272H808.319ZM833.167 272V226.556H849.127V232.94C852.067 229.16 856.267 225.548 862.735 225.548C872.395 225.548 878.191 231.932 878.191 242.264V272H862.231V247.388C862.231 242.432 859.627 239.744 855.847 239.744C851.983 239.744 849.127 242.432 849.127 247.388V272H833.167ZM908.917 273.092C894.637 273.092 884.557 263.6 884.557 249.488V249.32C884.557 236.048 894.049 225.548 907.489 225.548C923.197 225.548 930.421 237.056 930.421 250.412C930.421 251.42 930.421 252.596 930.337 253.688H899.929C901.189 258.644 904.801 261.164 909.757 261.164C913.537 261.164 916.561 259.736 919.837 256.544L928.657 263.852C924.289 269.396 917.989 273.092 908.917 273.092ZM899.677 245.54H915.469C914.881 240.5 911.941 237.308 907.573 237.308C903.373 237.308 900.517 240.584 899.677 245.54ZM959.776 273.092C945.496 273.092 935.416 263.6 935.416 249.488V249.32C935.416 236.048 944.908 225.548 958.348 225.548C974.056 225.548 981.28 237.056 981.28 250.412C981.28 251.42 981.28 252.596 981.196 253.688H950.788C952.048 258.644 955.66 261.164 960.616 261.164C964.396 261.164 967.42 259.736 970.696 256.544L979.516 263.852C975.148 269.396 968.848 273.092 959.776 273.092ZM950.536 245.54H966.328C965.74 240.5 962.8 237.308 958.432 237.308C954.232 237.308 951.376 240.584 950.536 245.54ZM988.124 272V226.556H1004.08V235.712C1006.69 229.496 1010.89 225.464 1018.45 225.8V242.6H1017.1C1008.79 242.6 1004.08 247.388 1004.08 257.888V272H988.124Z" fill="white"/>
</svg>
