<svg width="1280" height="240" viewBox="0 0 1280 240" fill="none" xmlns="http://www.w3.org/2000/svg">
<rect width="1280" height="240" fill="white"/>
<rect x="296" y="80.2115" width="26.6667" height="26.6667" fill="#07080A"/>
<rect x="322.667" y="106.878" width="26.6667" height="26.6667" fill="#07080A"/>
<rect x="296" y="133.545" width="26.6667" height="26.6667" fill="#07080A"/>
<rect x="349.333" y="80.2115" width="26.6667" height="26.6667" fill="#07080A"/>
<path d="M440.576 145L453.68 125.344L440.792 106.048H455.552L461.312 115.624L467.072 106.048H481.544L468.728 125.272L481.832 145H467.144L461.096 134.992L454.976 145H440.576ZM502.835 145.936C490.595 145.936 481.955 137.8 481.955 125.704V125.56C481.955 114.184 490.091 105.184 501.611 105.184C515.075 105.184 521.267 115.048 521.267 126.496C521.267 127.36 521.267 128.368 521.195 129.304H495.131C496.211 133.552 499.307 135.712 503.555 135.712C506.795 135.712 509.387 134.488 512.195 131.752L519.755 138.016C516.011 142.768 510.611 145.936 502.835 145.936ZM494.915 122.32H508.451C507.947 118 505.427 115.264 501.683 115.264C498.083 115.264 495.635 118.072 494.915 122.32ZM527.133 145V106.048H540.813V113.896C543.045 108.568 546.645 105.112 553.125 105.4V119.8H551.973C544.845 119.8 540.813 123.904 540.813 132.904V145H527.133ZM577.099 145.936C564.643 145.936 555.643 136.792 555.643 125.704V125.56C555.643 114.472 564.715 105.184 577.243 105.184C589.699 105.184 598.699 114.328 598.699 125.416V125.56C598.699 136.648 589.627 145.936 577.099 145.936ZM577.243 134.344C582.211 134.344 585.379 130.384 585.379 125.704V125.56C585.379 120.808 581.923 116.776 577.099 116.776C572.131 116.776 568.963 120.736 568.963 125.416V125.56C568.963 130.312 572.419 134.344 577.243 134.344ZM603.198 145V130.96H617.454V145H603.198ZM642.827 145.936C630.587 145.936 621.947 137.8 621.947 125.704V125.56C621.947 114.184 630.083 105.184 641.603 105.184C655.067 105.184 661.259 115.048 661.259 126.496C661.259 127.36 661.259 128.368 661.187 129.304H635.123C636.203 133.552 639.299 135.712 643.547 135.712C646.787 135.712 649.379 134.488 652.187 131.752L659.747 138.016C656.003 142.768 650.603 145.936 642.827 145.936ZM634.907 122.32H648.443C647.939 118 645.419 115.264 641.675 115.264C638.075 115.264 635.627 118.072 634.907 122.32ZM667.125 145V106.048H680.805V111.52C683.325 108.28 686.925 105.184 692.469 105.184C700.749 105.184 705.717 110.656 705.717 119.512V145H692.037V123.904C692.037 119.656 689.805 117.352 686.565 117.352C683.253 117.352 680.805 119.656 680.805 123.904V145H667.125ZM731.91 156.664C724.35 156.664 718.014 155.08 712.398 152.2L716.79 143.128C720.966 145.432 725.142 146.8 730.398 146.8C737.238 146.8 740.622 143.416 740.622 137.224V135.712C737.886 138.88 734.286 141.544 728.598 141.544C719.022 141.544 711.318 134.632 711.318 123.472V123.328C711.318 112.096 719.166 105.184 728.166 105.184C733.998 105.184 737.454 107.56 740.406 110.656V106.048H754.086V135.64C754.086 142.768 752.502 147.736 749.046 151.192C745.518 154.72 740.046 156.664 731.91 156.664ZM732.702 131.032C737.31 131.032 740.622 127.792 740.622 123.472V123.328C740.622 119.008 737.31 115.84 732.702 115.84C728.022 115.84 724.71 119.08 724.71 123.4V123.544C724.71 127.864 728.022 131.032 732.702 131.032ZM761.414 102.52V92.44H775.67V102.52H761.414ZM761.702 145V106.048H775.382V145H761.702ZM783 145V106.048H796.68V111.52C799.2 108.28 802.8 105.184 808.344 105.184C816.624 105.184 821.592 110.656 821.592 119.512V145H807.912V123.904C807.912 119.656 805.68 117.352 802.44 117.352C799.128 117.352 796.68 119.656 796.68 123.904V145H783ZM847.929 145.936C835.689 145.936 827.049 137.8 827.049 125.704V125.56C827.049 114.184 835.185 105.184 846.705 105.184C860.169 105.184 866.361 115.048 866.361 126.496C866.361 127.36 866.361 128.368 866.289 129.304H840.225C841.305 133.552 844.401 135.712 848.649 135.712C851.889 135.712 854.481 134.488 857.289 131.752L864.849 138.016C861.105 142.768 855.705 145.936 847.929 145.936ZM840.009 122.32H853.545C853.041 118 850.521 115.264 846.777 115.264C843.177 115.264 840.729 118.072 840.009 122.32ZM891.523 145.936C879.283 145.936 870.643 137.8 870.643 125.704V125.56C870.643 114.184 878.779 105.184 890.299 105.184C903.763 105.184 909.955 115.048 909.955 126.496C909.955 127.36 909.955 128.368 909.883 129.304H883.819C884.899 133.552 887.995 135.712 892.243 135.712C895.483 135.712 898.075 134.488 900.883 131.752L908.443 138.016C904.699 142.768 899.299 145.936 891.523 145.936ZM883.603 122.32H897.139C896.635 118 894.115 115.264 890.371 115.264C886.771 115.264 884.323 118.072 883.603 122.32ZM915.82 145V106.048H929.5V113.896C931.732 108.568 935.332 105.112 941.812 105.4V119.8H940.66C933.532 119.8 929.5 123.904 929.5 132.904V145H915.82Z" fill="#07080A"/>
</svg>
