<svg width="1280" height="300" viewBox="0 0 1280 300" fill="none" xmlns="http://www.w3.org/2000/svg">
<rect width="1280" height="300" rx="32" fill="#07080A"/>
<rect x="296" y="110.211" width="26.6667" height="26.6667" fill="white"/>
<rect x="322.667" y="136.878" width="26.6667" height="26.6667" fill="white"/>
<rect x="296" y="163.545" width="26.6667" height="26.6667" fill="white"/>
<rect x="349.333" y="110.211" width="26.6667" height="26.6667" fill="white"/>
<path d="M440.576 175L453.68 155.344L440.792 136.048H455.552L461.312 145.624L467.072 136.048H481.544L468.728 155.272L481.832 175H467.144L461.096 164.992L454.976 175H440.576ZM502.835 175.936C490.595 175.936 481.955 167.8 481.955 155.704V155.56C481.955 144.184 490.091 135.184 501.611 135.184C515.075 135.184 521.267 145.048 521.267 156.496C521.267 157.36 521.267 158.368 521.195 159.304H495.131C496.211 163.552 499.307 165.712 503.555 165.712C506.795 165.712 509.387 164.488 512.195 161.752L519.755 168.016C516.011 172.768 510.611 175.936 502.835 175.936ZM494.915 152.32H508.451C507.947 148 505.427 145.264 501.683 145.264C498.083 145.264 495.635 148.072 494.915 152.32ZM527.133 175V136.048H540.813V143.896C543.045 138.568 546.645 135.112 553.125 135.4V149.8H551.973C544.845 149.8 540.813 153.904 540.813 162.904V175H527.133ZM577.099 175.936C564.643 175.936 555.643 166.792 555.643 155.704V155.56C555.643 144.472 564.715 135.184 577.243 135.184C589.699 135.184 598.699 144.328 598.699 155.416V155.56C598.699 166.648 589.627 175.936 577.099 175.936ZM577.243 164.344C582.211 164.344 585.379 160.384 585.379 155.704V155.56C585.379 150.808 581.923 146.776 577.099 146.776C572.131 146.776 568.963 150.736 568.963 155.416V155.56C568.963 160.312 572.419 164.344 577.243 164.344ZM603.198 175V160.96H617.454V175H603.198ZM642.827 175.936C630.587 175.936 621.947 167.8 621.947 155.704V155.56C621.947 144.184 630.083 135.184 641.603 135.184C655.067 135.184 661.259 145.048 661.259 156.496C661.259 157.36 661.259 158.368 661.187 159.304H635.123C636.203 163.552 639.299 165.712 643.547 165.712C646.787 165.712 649.379 164.488 652.187 161.752L659.747 168.016C656.003 172.768 650.603 175.936 642.827 175.936ZM634.907 152.32H648.443C647.939 148 645.419 145.264 641.675 145.264C638.075 145.264 635.627 148.072 634.907 152.32ZM667.125 175V136.048H680.805V141.52C683.325 138.28 686.925 135.184 692.469 135.184C700.749 135.184 705.717 140.656 705.717 149.512V175H692.037V153.904C692.037 149.656 689.805 147.352 686.565 147.352C683.253 147.352 680.805 149.656 680.805 153.904V175H667.125ZM731.91 186.664C724.35 186.664 718.014 185.08 712.398 182.2L716.79 173.128C720.966 175.432 725.142 176.8 730.398 176.8C737.238 176.8 740.622 173.416 740.622 167.224V165.712C737.886 168.88 734.286 171.544 728.598 171.544C719.022 171.544 711.318 164.632 711.318 153.472V153.328C711.318 142.096 719.166 135.184 728.166 135.184C733.998 135.184 737.454 137.56 740.406 140.656V136.048H754.086V165.64C754.086 172.768 752.502 177.736 749.046 181.192C745.518 184.72 740.046 186.664 731.91 186.664ZM732.702 161.032C737.31 161.032 740.622 157.792 740.622 153.472V153.328C740.622 149.008 737.31 145.84 732.702 145.84C728.022 145.84 724.71 149.08 724.71 153.4V153.544C724.71 157.864 728.022 161.032 732.702 161.032ZM761.414 132.52V122.44H775.67V132.52H761.414ZM761.702 175V136.048H775.382V175H761.702ZM783 175V136.048H796.68V141.52C799.2 138.28 802.8 135.184 808.344 135.184C816.624 135.184 821.592 140.656 821.592 149.512V175H807.912V153.904C807.912 149.656 805.68 147.352 802.44 147.352C799.128 147.352 796.68 149.656 796.68 153.904V175H783ZM847.929 175.936C835.689 175.936 827.049 167.8 827.049 155.704V155.56C827.049 144.184 835.185 135.184 846.705 135.184C860.169 135.184 866.361 145.048 866.361 156.496C866.361 157.36 866.361 158.368 866.289 159.304H840.225C841.305 163.552 844.401 165.712 848.649 165.712C851.889 165.712 854.481 164.488 857.289 161.752L864.849 168.016C861.105 172.768 855.705 175.936 847.929 175.936ZM840.009 152.32H853.545C853.041 148 850.521 145.264 846.777 145.264C843.177 145.264 840.729 148.072 840.009 152.32ZM891.523 175.936C879.283 175.936 870.643 167.8 870.643 155.704V155.56C870.643 144.184 878.779 135.184 890.299 135.184C903.763 135.184 909.955 145.048 909.955 156.496C909.955 157.36 909.955 158.368 909.883 159.304H883.819C884.899 163.552 887.995 165.712 892.243 165.712C895.483 165.712 898.075 164.488 900.883 161.752L908.443 168.016C904.699 172.768 899.299 175.936 891.523 175.936ZM883.603 152.32H897.139C896.635 148 894.115 145.264 890.371 145.264C886.771 145.264 884.323 148.072 883.603 152.32ZM915.82 175V136.048H929.5V143.896C931.732 138.568 935.332 135.112 941.812 135.4V149.8H940.66C933.532 149.8 929.5 153.904 929.5 162.904V175H915.82Z" fill="white"/>
</svg>
